<?xml version="1.0" encoding="UTF-8"?>
<svg id="Layer_1" data-name="Layer 1" xmlns="http://www.w3.org/2000/svg" viewBox="0 0 844.95 226.3">
  <defs>
    <style>
      .cls-1 {
        fill: #ea0029;
      }

      .cls-1, .cls-2 {
        stroke-width: 0px;
      }

      .cls-2 {
        fill: #ffffff;
      }
    </style>
  </defs>
  <path class="cls-2" d="M104.78,226.3h-.11c-34.12,0-62.21-9.23-79.11-26C3.32,178.24,0,141.5,0,121.56s3.32-56.67,25.56-78.73c16.9-16.76,45-26,79.11-26h.11c34.13,0,62.23,9.23,79.13,26h0c22.24,22.06,25.56,58.8,25.56,78.74s-3.32,56.67-25.56,78.73c-16.9,16.76-45,26-79.13,26ZM104.67,37.93c-28.51,0-51.33,7.06-64.25,19.88-12.28,12.18-19.32,35.42-19.32,63.75s7.04,51.58,19.32,63.76c12.92,12.82,35.74,19.88,64.25,19.88h.11c28.53,0,51.35-7.06,64.27-19.88,12.28-12.18,19.32-35.42,19.32-63.75s-7.04-51.58-19.32-63.76h0c-12.92-12.82-35.75-19.88-64.27-19.88h-.11Z"/>
  <g>
    <path class="cls-2" d="M597.48,158.81c.04-.68.13-1.34.29-1.97,1.11-4.63,5.14-8.09,10.04-8.36l2.78-.15c.73-.04,1.97-.06,3.21-.06s2.48.02,3.22.06l2.78.15c4.9.27,8.93,3.73,10.03,8.36h15.93c-1.24-13.08-11.85-23.35-25.09-24.08l-2.77-.16c-2.07-.11-6.12-.11-8.19,0l-2.78.16c-13.23.73-23.84,11-25.08,24.08-.04.36-.07.72-.09,1.09l-.16,2.78c-.11,2.05-.11,4.13,0,6.18l.16,2.78c.02.37.05.73.09,1.1,1.25,13.08,11.85,23.35,25.08,24.08l2.78.16c1.04.05,2.56.08,4.09.08s3.06-.03,4.09-.08l2.78-.16c13.23-.73,23.84-11,25.09-24.08h-15.93c-1.1,4.63-5.13,8.09-10.03,8.36l-2.78.15c-1.47.08-4.96.08-6.43,0l-2.78-.15c-4.9-.27-8.93-3.73-10.04-8.36-.16-.63-.25-1.29-.29-1.97l-.15-2.78c-.08-1.47-.08-2.96,0-4.43l.15-2.78Z"/>
    <path class="cls-2" d="M462.28,87.32c.77,13.78,11.73,24.74,25.51,25.51l2.83.16c1.05.06,2.61.09,4.16.09s3.11-.03,4.16-.09l2.83-.16h0c13.78-.77,24.74-11.73,25.51-25.51l.16-2.83c.07-1.2.1-2.42.08-3.62,0-.89-.04-1.78-.08-2.66l-.16-2.83c-.77-13.78-11.73-24.74-25.51-25.51l-2.83-.16c-2.1-.12-6.22-.12-8.32,0l-2.83.16c-13.78.77-24.74,11.73-25.51,25.51l-.16,2.83c-.12,2.08-.12,4.2,0,6.28l.16,2.83ZM477.85,79.08l.16-2.83c.32-5.75,4.9-10.34,10.66-10.66l2.83-.16c.75-.04,2.02-.06,3.29-.06s2.53.02,3.28.06l2.83.16c5.76.32,10.34,4.9,10.66,10.66l.16,2.83c.04.64.06,1.28.06,1.92,0,.87-.01,1.75-.06,2.62l-.16,2.83c-.32,5.75-4.9,10.34-10.66,10.66l-2.83.16c-1.5.08-5.06.08-6.57,0l-2.83-.16c-5.76-.32-10.34-4.9-10.66-10.66l-.16-2.83c-.08-1.5-.08-3.03,0-4.53Z"/>
    <path class="cls-2" d="M348.39,112.83l2.83.16c1.05.06,2.61.09,4.16.09s3.11-.03,4.16-.09l2.83-.16h0c13.78-.77,24.74-11.73,25.51-25.51l.16-2.83c.07-1.2.1-2.42.08-3.62,0-.88-.04-1.77-.08-2.65l-.16-2.83c-.77-13.78-11.73-24.74-25.51-25.51l-2.83-.16c-2.1-.12-6.22-.12-8.32,0l-2.83.16c-13.78.77-24.74,11.73-25.51,25.51l-.16,2.83c-.12,2.08-.12,4.2,0,6.28l.16,2.83c.77,13.78,11.73,24.74,25.51,25.51ZM338.45,79.08l.16-2.83c.32-5.75,4.9-10.34,10.66-10.66l2.83-.16c.75-.04,2.02-.06,3.29-.06s2.53.02,3.28.06l2.83.16c5.76.32,10.34,4.9,10.66,10.66l.16,2.83c.04.64.06,1.28.06,1.92,0,.87-.01,1.75-.06,2.62l-.16,2.83c-.32,5.75-4.9,10.34-10.66,10.66l-2.83.16c-1.5.08-5.06.08-6.57,0l-2.83-.16c-5.76-.32-10.34-4.9-10.66-10.66l-.16-2.83c-.08-1.5-.08-3.03,0-4.53Z"/>
    <path class="cls-2" d="M844.87,160.71l-.15-2.78c-.76-13.6-11.58-24.42-25.18-25.18l-2.78-.16c-2.06-.11-6.11-.11-8.18,0l-2.78.15c-13.6.75-24.42,11.58-25.18,25.18l-.15,2.78c-.11,2.05-.11,4.13,0,6.18l.15,2.78c.75,13.6,11.58,24.42,25.18,25.18l2.78.15c1.03.06,2.56.08,4.09.08s3.06-.03,4.09-.08l2.78-.15h0c13.6-.76,24.42-11.58,25.18-25.18l.15-2.78c.11-2.05.11-4.13,0-6.18ZM829.14,166.02l-.15,2.78c-.31,5.58-4.75,10.02-10.33,10.33l-2.78.15c-1.48.08-4.96.08-6.44,0l-2.78-.15c-5.58-.31-10.02-4.75-10.33-10.33l-.15-2.78c-.08-1.47-.08-2.96,0-4.43l.15-2.78c.31-5.58,4.75-10.02,10.33-10.33l2.77-.15c.74-.04,1.98-.06,3.22-.06s2.48.02,3.21.06l2.78.16c5.58.31,10.02,4.75,10.33,10.33l.15,2.78c.08,1.47.08,2.96,0,4.43Z"/>
    <polygon class="cls-2" points="297.57 73.68 265.77 73.68 265.77 50.05 250.02 50.05 250.02 113.06 265.77 113.06 265.77 89.43 297.57 89.43 297.57 113.06 313.32 113.06 313.32 50.05 297.57 50.05 297.57 73.68"/>
    <polygon class="cls-2" points="495.72 155.97 463.92 155.97 463.92 132.34 448.17 132.34 448.17 195.35 463.92 195.35 463.92 171.72 495.72 171.72 495.72 195.35 511.47 195.35 511.47 132.34 495.72 132.34 495.72 155.97"/>
    <path class="cls-2" d="M396.97,113.06l38.71-.03c12.15,0,22-8.46,22-18.89h0c0-5.77-3.02-10.94-7.78-14.4,2.49-3.06,3.95-6.78,3.95-10.8,0-10.43-9.85-18.89-22.01-18.89h-34.91v62.98h.03v.04ZM412.21,63.15h18.85c3.2,0,5.79,2.59,5.79,5.79h0c0,3.2-2.59,5.79-5.79,5.79h-18.85v-11.59ZM412.21,88.58h0s24.64,0,24.64,0c3.08,0,5.58,2.5,5.58,5.58s-2.5,5.58-5.58,5.58h-24.64v-11.15Z"/>
    <path class="cls-2" d="M767.91,161.97c2.49-3.06,3.95-6.78,3.95-10.8,0-10.43-9.85-18.89-22.01-18.89h-34.91v62.98h.03v.04l38.71-.03c12.15,0,22-8.46,22-18.89h0c0-5.77-3.02-10.94-7.78-14.4ZM730.23,145.38h18.85c3.2,0,5.79,2.59,5.79,5.79h0c0,3.2-2.59,5.79-5.79,5.79h-18.85v-11.59ZM754.87,181.96h-24.64v-11.15h0s24.64,0,24.64,0c3.08,0,5.58,2.5,5.58,5.58s-2.5,5.58-5.58,5.58Z"/>
    <path class="cls-2" d="M533.76,86.9c.75,13.6,11.58,24.43,25.18,25.18l2.78.16c1.03.05,2.56.08,4.09.08s3.06-.03,4.09-.08l2.78-.16c11.18-.62,20.48-8.05,23.85-18.23h-18.34c-1.75,1.46-3.96,2.37-6.39,2.51l-2.77.15c-1.48.08-4.97.08-6.44,0l-2.78-.15c-4.92-.27-8.95-3.76-10.04-8.41h41.61s6.41,0,6.41,0c.03-.35.06-.7.08-1.05l.15-2.78c.07-1.18.09-2.38.08-3.56,0-.87-.03-1.75-.08-2.62l-.15-2.78c-.76-13.59-11.58-24.42-25.18-25.17l-2.78-.16c-2.07-.12-6.12-.11-8.18,0l-2.78.16c-13.6.75-24.43,11.58-25.18,25.17l-.15,2.78c-.12,2.05-.12,4.13,0,6.18l.15,2.78ZM559.81,65.71l2.78-.15c.74-.04,1.98-.06,3.22-.06s2.48.02,3.21.06l2.78.15c4.92.27,8.95,3.76,10.05,8.41h-32.08c1.09-4.65,5.12-8.13,10.04-8.41Z"/>
    <path class="cls-2" d="M438.87,157.93c-.76-13.59-11.58-24.42-25.18-25.17l-2.78-.16c-2.07-.12-6.12-.11-8.18,0l-2.78.16c-13.6.75-24.43,11.58-25.18,25.17l-.15,2.78c-.12,2.05-.12,4.13,0,6.18l.15,2.78c.75,13.6,11.58,24.43,25.18,25.18l2.78.16c1.03.05,2.56.08,4.09.08s3.06-.03,4.09-.08l2.78-.16c11.18-.62,20.48-8.05,23.85-18.23h-18.34c-1.75,1.46-3.96,2.37-6.39,2.51l-2.77.15c-1.48.08-4.97.08-6.44,0l-2.78-.15c-4.92-.27-8.95-3.76-10.04-8.41h41.61s6.41,0,6.41,0c.03-.35.06-.7.08-1.05l.15-2.78c.07-1.18.09-2.38.08-3.56,0-.87-.03-1.75-.08-2.62l-.15-2.78ZM390.78,156.88c1.09-4.65,5.12-8.13,10.04-8.41l2.78-.15c.74-.04,1.98-.06,3.22-.06s2.48.02,3.21.06l2.78.15c4.92.27,8.95,3.76,10.05,8.41h-32.08Z"/>
    <polygon class="cls-2" points="650.43 148.26 672.06 148.26 672.06 195.13 687.81 195.13 687.81 148.26 709.43 148.26 709.43 132.51 650.43 132.51 650.43 148.26"/>
    <polygon class="cls-2" points="518.68 148.09 540.3 148.09 540.3 195.13 556.05 195.13 556.05 148.09 577.68 148.09 577.68 132.34 518.68 132.34 518.68 148.09"/>
    <polygon class="cls-2" points="324.8 148.26 324.8 148.26 324.8 195.9 340.55 195.9 340.55 148.26 370.87 148.26 370.87 132.51 324.8 132.51 324.8 148.26"/>
    <path class="cls-2" d="M313.24,160.65l-.17-2.79c-.02-.54-.07-1.09-.15-1.65v-.24h-.03c-.02-.17-.04-.34-.07-.52-1.92-12.69-13.04-22.41-26.42-23.12l-3-.16c-2.17-.11-6.43-.11-8.65,0l-2.93.16c-6.1.32-11.62,2.6-16.31,6.32-3.04,2.44-4.93,5.19-5.49,6l14.76,7.16h.03c.48-.48.87-.79.87-.79l.26-.2c1.92-1.54,4.27-2.42,6.81-2.55l2.9-.16c1.58-.08,5.31-.08,6.84,0l2.96.16c4.68.25,8.25,3.15,9.85,6.32.14.25.18.36.18.36,0,0,.54,1.28.54,1.93-.73,0-8.93.24-16.67,1.26-7.74,1.01-14.38,2.45-19.38,4.68-4.09,1.82-7.25,4.78-8.8,8.81-3.44,8.97,1.65,14.59,4.35,17.2,4.86,4.31,10.04,6.08,17.02,6.44l2.93.15c1.1.06,2.01.09,3.63.09s3.22-.03,4.31-.09l2.96-.15c3.64-.19,7.15-1.57,10.35-3.6v3.62h16.59v-30.97c0-.35,0-.69,0-1.04v-.38h-.01c-.01-.75-.02-1.5-.07-2.25ZM295.27,173.32c-1.38,2.32-4.18,4.78-7.08,5.29-3.07.56-5.21.56-9.47.56-2.2,0-12.91.18-12.91-2.32,0-1.55,2.99-2.47,8.59-3.66.89-.19,2.61-.54,4.5-.91,5.19-1.03,10.47-1.56,15.76-1.56h1.62c-.15.77-.45,1.69-1,2.6Z"/>
  </g>
  <circle class="cls-1" cx="192.61" cy="33.71" r="33.71"/>
</svg>